<svg xmlns="http://www.w3.org/2000/svg"><symbol id="mecha-stilts" viewBox="0 0 228.11 228.11"><defs><style>.cls-1{fill:#fff}</style></defs><path d="M112.56 4.96l94.91 54.8v109.59l-94.91 54.8-94.92-54.8V59.76l94.92-54.8z"/><path d="M60.53 155a1.7 1.7 0 0 1-1.8-1.8v-21.73H35a1.8 1.8 0 0 1 0-3.6h13.5v-11.7a1.7 1.7 0 0 1 1.8-1.8h7a57.07 57.07 0 0 1 55.08-43.74c.18-.18.36-.18.72 0a56.86 56.86 0 0 1 54.72 43.74h7a1.7 1.7 0 0 1 1.8 1.8v11.7h13.5a1.8 1.8 0 1 1 0 3.6h-23.75v21.78a1.7 1.7 0 0 1-1.8 1.8zm-8.46-37v9.9H173V118zM109 74.41c-23 1.44-42.3 18.18-47.88 40h19.21zm-46.67 57.06v20h48.42v-20zM110.75 78l-25.92 36.37h25.92zm3.6-3.78v40.14H164a53.5 53.5 0 0 0-49.65-40.13zm0 57.24v20h8.1v-20zm11.7 0v20h36.72v-20z" class="cls-1"/></symbol><symbol id="space-bubbles" viewBox="0 0 228.11 228.11"><defs><style>.cls-1{fill:#fff}</style></defs><path d="M112.3 2.77l94.91 54.8v109.59l-94.91 54.8-94.92-54.8V57.57l94.92-54.8z"/><path d="M58.66 156.82l-4.14-5.94a1.89 1.89 0 0 1 .18-2.16l14.94-17.64h-7.39a1.7 1.7 0 0 1-1.8-1.8v-13a1.7 1.7 0 0 1 1.8-1.8h10.44a50.28 50.28 0 0 1-2-13.68 42.57 42.57 0 0 1 85.14 0 44.18 44.18 0 0 1-2 13.68h10.44a1.7 1.7 0 0 1 1.8 1.8v13a1.7 1.7 0 0 1-1.8 1.8h-9.18l14.76 17.64a1.89 1.89 0 0 1 0 2.16l-4.14 5.94a1.91 1.91 0 0 1-2.34.54l-8.64-4.5h-85.1l-8.63 4.5a2 2 0 0 1-2.34-.54zM86 131.08H74.13L58.29 149.8l2.52 3.6 30.42-16zm-22-13v9.36h98.46v-9.36zm12.42-3.6h73.62a43.5 43.5 0 0 0 2.16-13.68 39 39 0 0 0-77.94 0c.05 4.72.41 9.58 2.21 13.72zm17.28 25.74l-17.1 9h24.48zm-3.06-9.18l15.12 18.18h13l15.12-18.18zm40.14 9.18l-7.38 9h24.48zm19.62-9.18h-11.83l-5.4 6.3 30.6 16 2.52-3.42z" class="cls-1"/></symbol><symbol id="super-domes" viewBox="0 0 228.11 228.11"><defs><style>.cls-1{fill:#fff}</style></defs><path d="M112.06 4.46l94.91 54.8v109.59l-94.91 54.8-94.92-54.8V59.26l94.92-54.8z"/><path d="M57 154.55a1.8 1.8 0 0 1 0-3.6h9v-11.34h-9a1.7 1.7 0 0 1-1.8-1.8v-35.46a1.7 1.7 0 0 1 1.8-1.8h11.85c.9-25.56 20-39.6 43.2-39.6s42.3 14 43.2 39.6h11.88a1.7 1.7 0 0 1 1.8 1.8v35.46a1.7 1.7 0 0 1-1.8 1.8h-9V151h9a1.8 1.8 0 1 1 0 3.6zm1.8-50.4V136h106.53v-31.85zm10.8 35.46V151h11.49v-11.39zm2.88-39.06h79.2c-.9-23.22-18.54-36-39.6-36s-38.73 12.78-39.63 36zm12.24 39.06V151h18v-11.39zm21.6 0V151h11.52v-11.39zm48.78-12.24h-43.95a1.8 1.8 0 1 1 0-3.6h43.92a1.8 1.8 0 0 1 0 3.6zm-33.66 12.24V151h18v-11.39zm21.6 0V151h11.52v-11.39z" class="cls-1"/></symbol></svg>